<svg width="91" height="90" viewBox="0 0 91 90" fill="none" xmlns="http://www.w3.org/2000/svg"><path d="M57.5433 45.2444C56.828 44.5291 55.6986 44.5291 54.9834 45.2067L41.9957 58.0062L35.8218 51.7571C35.1066 51.0419 33.9772 51.0419 33.2619 51.7195C32.5467 52.4347 32.5467 53.5641 33.2243 54.2793L41.9203 63.126L57.5055 47.7667C58.2584 47.1267 58.2584 45.9597 57.5431 45.2445L57.5433 45.2444Z" fill="#6D95FC"/><path d="M49.5352 13.8691L49.5352 13.8691C48.366 14.998 46.8872 15.6688 45.3382 15.628C43.7352 15.6061 42.2229 14.8386 41.1225 13.713C40.0216 12.5868 39.2935 11.0616 39.3144 9.47478L39.3144 9.46871L39.3145 9.46871C39.3967 6.22245 42.1793 3.52285 45.4233 3.52274L49.5352 13.8691ZM49.5352 13.8691L49.5415 13.8629M49.5352 13.8691L49.5415 13.8629M49.5415 13.8629C50.7074 12.6969 51.4572 11.1449 51.4572 9.59423C51.4572 8.03114 50.8398 6.51105 49.692 5.36324C48.5555 4.22674 47.0394 3.5228 45.4235 3.52274L49.5415 13.8629ZM54.1088 9.62414L54.1088 9.62414V9.63195C54.1088 11.8539 53.1203 14.0622 51.4 15.7477C49.7527 17.3223 47.5781 18.242 45.461 18.242H45.3142C40.6576 18.1687 36.6292 14.0276 36.7001 9.41368L36.7001 9.41352C36.7714 4.68342 40.6861 0.871094 45.4234 0.871094H45.4947C47.7701 0.907692 49.9396 1.83193 51.5786 3.50667L51.5786 3.50669L51.5824 3.51049C53.2591 5.18716 54.1443 7.3544 54.1088 9.62414Z" fill="white" stroke="black"/><path d="M59.7274 37.104H59.7048C58.9678 37.0927 58.3763 36.5209 58.3447 35.7873V28.7951V28.7335L58.3297 28.6738C58.2952 28.5356 58.2147 28.411 58.1393 28.3156C58.0549 28.2088 57.9422 28.0954 57.7994 27.9811C57.5129 27.7519 57.0933 27.5099 56.5019 27.306L56.5 27.3053L56.3389 27.7786L56.5 27.3053L56.4998 27.3053L56.4993 27.3051L56.4974 27.3044L56.4897 27.3018L56.4596 27.2916L56.3437 27.2522L55.9152 27.1068C55.552 26.9838 55.0469 26.8131 54.4795 26.6224C53.3453 26.2411 51.9589 25.779 50.9577 25.4579L50.6672 25.3647L50.4515 25.5804L45.4595 30.5724L40.4675 25.5804L40.2517 25.3647L39.9612 25.4579C38.96 25.779 37.5737 26.2412 36.4395 26.6224C35.872 26.8131 35.3669 26.9838 35.0037 27.1069L34.5752 27.2522L34.4593 27.2916L34.4292 27.3018L34.4215 27.3044L34.4204 27.3048C33.2212 27.7049 32.6567 28.3327 32.5793 28.8749L32.5743 28.9101V28.9456V35.797C32.5743 36.4997 31.9699 37.104 31.2673 37.104C30.5578 37.104 29.9603 36.5305 29.9603 35.797V29.0585V29.0512L29.9601 29.0439C29.9286 27.9702 30.5563 25.8447 33.6089 24.8272L33.6089 24.8272L33.6109 24.8265L33.4508 24.3528L33.611 24.8265L33.6111 24.8264L33.6119 24.8262L33.6148 24.8252L33.6262 24.8213L33.6712 24.8061L33.843 24.7481L34.4664 24.5378C34.988 24.362 35.6971 24.1233 36.4473 23.8716C37.9506 23.3674 39.6109 22.814 40.264 22.6088L40.264 22.6088L40.2671 22.6078L41.0305 22.3624L45.1438 26.4757L45.4973 26.8293L45.8509 26.4757L49.9642 22.3624L50.7276 22.6078L50.7307 22.6088C51.3838 22.814 53.0441 23.3674 54.5474 23.8716C55.2976 24.1233 56.0067 24.362 56.5283 24.5378L57.1516 24.7481L57.3235 24.8061L57.3684 24.8213L57.3799 24.8252L57.3828 24.8262L57.3835 24.8264L57.3837 24.8265L57.5439 24.3528L57.3837 24.8265L57.3857 24.8272C60.4477 25.8478 61.0972 27.9761 61.0352 29.0292L61.0344 29.0438V29.0585V35.797C61.0344 36.5065 60.4609 37.104 59.7274 37.104Z" fill="white" stroke="black"/><path d="M20.6212 65.8949L20.6211 65.8949C19.4506 67.025 17.9339 67.6946 16.4239 67.6538C14.821 67.6319 13.3088 66.8644 12.2085 65.7388C11.1076 64.6127 10.3795 63.0876 10.4003 61.5009L20.6212 65.8949ZM20.6212 65.8949L20.6274 65.8887M20.6212 65.8949L20.6274 65.8887M20.6274 65.8887C21.7917 64.7243 22.541 63.1752 22.5431 61.6266C22.5829 60.0433 21.914 58.5654 20.7843 57.3953L20.7843 57.3953M20.6274 65.8887L20.7843 57.3953M20.7843 57.3953L20.7781 57.3891M20.7843 57.3953L20.7781 57.3891M20.7781 57.3891C19.643 56.2539 18.1272 55.5486 16.5471 55.5486H16.5095C13.2315 55.5486 10.4417 58.246 10.4003 61.5006L20.7781 57.3891ZM7.78608 61.4772L7.78608 61.477C7.85729 56.7469 11.772 52.9346 16.5093 52.9346H16.5807C18.8561 52.9712 21.0256 53.8954 22.6647 55.5701L22.6646 55.5702L22.6685 55.574C24.3451 57.2506 25.2303 59.4179 25.1948 61.6876L25.1948 61.6876V61.6954C25.1948 63.9174 24.2064 66.1257 22.486 67.8111C20.8387 69.3858 18.6642 70.3055 16.547 70.3055H16.4022C11.74 70.1956 7.71516 66.0872 7.78608 61.4772Z" fill="white" stroke="black"/><path d="M30.8162 89.1294H30.7929C30.0638 89.1179 29.5087 88.5552 29.5087 87.8226V80.8205V80.7589L29.4938 80.6992C29.4593 80.561 29.3788 80.4364 29.3034 80.341C29.219 80.2342 29.1063 80.1208 28.9634 80.0065C28.6769 79.7773 28.2574 79.5353 27.6659 79.3313L27.6641 79.3307L27.5029 79.804L27.664 79.3307L27.6639 79.3307L27.6634 79.3305L27.6614 79.3298L27.6538 79.3272L27.6237 79.317L27.5078 79.2776L27.0793 79.1322C26.7161 79.0092 26.211 78.8385 25.6435 78.6477C24.5093 78.2665 23.123 77.8044 22.1218 77.4833L21.8313 77.3901L21.6155 77.6058L16.6235 82.5978L11.6315 77.6058L11.4158 77.3901L11.1252 77.4833C10.124 77.8044 8.73773 78.2665 7.60353 78.6478C7.03605 78.8385 6.53099 79.0092 6.1678 79.1322L5.73927 79.2776L5.62338 79.317L5.59329 79.3272L5.58561 79.3298L5.58446 79.3302C4.38522 79.7303 3.82081 80.3581 3.74334 80.9003L3.73832 80.9355V80.971V87.8224C3.73832 88.525 3.13398 89.1294 2.43134 89.1294C1.7219 89.1294 1.12436 88.5559 1.12436 87.8224V81.0839V81.0766L1.12415 81.0693C1.09268 79.9956 1.72036 77.8701 4.77298 76.8526L4.77298 76.8526L4.77599 76.8515L4.61487 76.3782L4.77605 76.8515L4.77623 76.8515L4.77695 76.8512L4.77982 76.8502L4.79121 76.8464L4.83583 76.8312L5.00645 76.7732L5.62551 76.5629C6.14356 76.3871 6.84795 76.1484 7.59346 75.8967C9.08746 75.3924 10.7378 74.8393 11.3904 74.6342L11.3904 74.6342L11.3935 74.6332L12.1569 74.3878L16.2701 78.5011L16.6252 78.8562L16.9788 78.4995L21.0544 74.3883L21.8164 74.6332L21.8195 74.6342C22.4727 74.8394 24.133 75.3928 25.6362 75.897C26.3865 76.1487 27.0956 76.3874 27.6172 76.5632L28.2405 76.7735L28.4123 76.8315L28.4573 76.8467L28.4687 76.8506L28.4716 76.8516L28.4724 76.8518L28.4725 76.8519L28.6327 76.3782L28.4726 76.8519L28.4746 76.8526C31.5365 77.8732 32.186 80.0015 32.1241 81.0546L32.1232 81.0692V81.0839V87.8224C32.1232 88.5318 31.5497 89.1294 30.8162 89.1294Z" fill="white" stroke="black"/><path d="M78.5718 57.3948L78.5717 57.3949C79.71 58.5739 80.3308 60.0515 80.3308 61.6196C80.3308 63.1703 79.581 64.7222 78.4151 65.8883L78.4088 65.8945L78.4088 65.8944C77.2383 67.0246 75.7215 67.6942 74.2115 67.6534C72.6086 67.6314 71.0965 66.8639 69.9961 65.7384C68.8953 64.6122 68.1671 63.0872 68.1879 61.5004C68.1879 61.5003 68.1879 61.5002 68.188 61.5002L68.6879 61.5068C68.7256 58.5706 71.2854 56.0482 74.2969 56.0481L78.5718 57.3948ZM78.5718 57.3948L78.5656 57.3886C77.4291 56.2521 75.913 55.5482 74.2971 55.5481L78.5718 57.3948ZM82.9448 61.6495L82.9447 61.6495V61.6573C82.9447 63.8793 81.9563 66.0876 80.2359 67.7731C78.5886 69.3477 76.4141 70.2674 74.2969 70.2674H74.1502C69.4936 70.194 65.4651 66.053 65.5361 61.4391L65.5361 61.4389C65.6073 56.7088 69.522 52.8965 74.2593 52.8965H74.3306C76.606 52.9331 78.7755 53.8573 80.4146 55.5321L80.4146 55.5321L80.4184 55.5359C82.095 57.2126 82.9802 59.3798 82.9448 61.6495Z" fill="white" stroke="black"/><path d="M88.5643 89.1294H88.541C87.8119 89.1179 87.2568 88.5552 87.2568 87.8226V80.8205V80.7589L87.2418 80.6992C87.2073 80.561 87.1268 80.4364 87.0514 80.341C86.967 80.2342 86.8543 80.1208 86.7115 80.0065C86.425 79.7773 86.0055 79.5353 85.414 79.3313L85.4121 79.3307L85.251 79.804L85.4121 79.3307L85.4119 79.3307L85.4114 79.3305L85.4095 79.3298L85.4018 79.3272L85.3717 79.317L85.2558 79.2776L84.8273 79.1322C84.4641 79.0092 83.9591 78.8385 83.3916 78.6477C82.2574 78.2665 80.8711 77.8044 79.8698 77.4833L79.5793 77.3901L79.3636 77.6058L74.3716 82.5978L69.3796 77.6058L69.1638 77.3901L68.8733 77.4833C67.8721 77.8044 66.4858 78.2665 65.3516 78.6478C64.7841 78.8385 64.279 79.0092 63.9158 79.1322L63.4873 79.2776L63.3714 79.317L63.3413 79.3272L63.3337 79.3298L63.3325 79.3302C62.1333 79.7303 61.5689 80.3581 61.4914 80.9003L61.4864 80.9355V80.971V87.8224C61.4864 88.525 60.882 89.1294 60.1794 89.1294C59.4699 89.1294 58.8724 88.5559 58.8724 87.8224V81.0839V81.0766L58.8722 81.0693C58.8407 79.9956 59.4684 77.8701 62.521 76.8526L62.521 76.8526L62.524 76.8515L62.3629 76.3782L62.5241 76.8515L62.5243 76.8515L62.525 76.8512L62.5279 76.8502L62.5393 76.8464L62.5839 76.8312L62.7545 76.7732L63.3736 76.5629C63.8916 76.3871 64.596 76.1484 65.3415 75.8967C66.8355 75.3924 68.4859 74.8393 69.1384 74.6342L69.1384 74.6342L69.1415 74.6332L69.9049 74.3878L74.0182 78.5011L74.3733 78.8562L74.7268 78.4995L78.8025 74.3883L79.5645 74.6332L79.5676 74.6342C80.2207 74.8394 81.881 75.3928 83.3843 75.897C84.1345 76.1487 84.8436 76.3874 85.3652 76.5632L85.9886 76.7735L86.1604 76.8315L86.2053 76.8467L86.2168 76.8506L86.2197 76.8516L86.2204 76.8518L86.2206 76.8519L86.3808 76.3782L86.2206 76.8519L86.2226 76.8526C89.2846 77.8732 89.9341 80.0015 89.8721 81.0546L89.8713 81.0692V81.0839V87.8224C89.8713 88.5318 89.2978 89.1294 88.5643 89.1294Z" fill="white" stroke="black"/><path d="M25.3948 37.5276C25.9972 36.8124 26.6371 36.0971 27.3147 35.4572C27.6159 35.1937 27.6159 34.7043 27.3524 34.4408C27.0888 34.1396 26.5994 34.1396 26.3359 34.4031C25.6207 35.0807 24.943 35.8337 24.3032 36.5866C24.0397 36.8878 24.0773 37.3396 24.3785 37.6031C24.529 37.716 24.6796 37.7536 24.8302 37.7536C25.0561 37.7913 25.2443 37.7159 25.3948 37.5276Z" fill="#6D95FC"/><path d="M18.9202 50.8552C19.2591 50.8552 19.5979 50.5917 19.6355 50.2529C19.7861 49.3117 19.9743 48.4082 20.2378 47.5047C20.3508 47.1283 20.1249 46.7142 19.7108 46.6012C19.3343 46.4883 18.9202 46.7142 18.8073 47.1283C18.5438 48.0694 18.3556 49.0481 18.205 50.0645C18.1297 50.4786 18.4308 50.8174 18.8073 50.8927C18.8449 50.8551 18.8826 50.8552 18.9202 50.8552Z" fill="#6D95FC"/><path d="M20.9907 43.9276C21.2542 43.9276 21.5177 43.777 21.6683 43.5135C22.0447 42.6477 22.4965 41.8195 22.9859 40.9913C23.1741 40.6525 23.0611 40.2008 22.7223 40.0125C22.3835 39.8243 21.9318 39.9373 21.7436 40.2761C21.2542 41.1419 20.7648 42.0077 20.3507 42.9112C20.2001 43.2876 20.3507 43.7017 20.7271 43.8899C20.8024 43.8899 20.8777 43.9276 20.9907 43.9276Z" fill="#6D95FC"/><path d="M55.9633 77.6386L55.6998 77.7516C55.3233 77.9022 55.1727 78.3539 55.3233 78.6927C55.4363 78.9562 55.6998 79.1445 56.0009 79.1445C56.1139 79.1445 56.1892 79.1068 56.3021 79.0692L56.6033 78.9562C56.9797 78.8057 57.1303 78.3539 56.9797 77.9775C56.7539 77.601 56.3397 77.4504 55.9633 77.6386Z" fill="#6D95FC"/><path d="M35.0711 77.752C34.6947 77.6015 34.2806 77.752 34.13 78.1285C33.9794 78.5049 34.13 78.9191 34.5064 79.0696C35.4099 79.4461 36.3511 79.8225 37.2923 80.0861C37.3676 80.1237 37.4429 80.1237 37.5181 80.1237C37.8193 80.1237 38.1205 79.9355 38.1958 79.5967C38.3087 79.2202 38.0828 78.8061 37.7064 78.6932C36.8405 78.4297 35.9369 78.1285 35.0711 77.752Z" fill="#6D95FC"/><path d="M51.6716 79.1069C50.7681 79.3327 49.8269 79.521 48.8857 79.6339C48.4716 79.6716 48.2081 80.048 48.2458 80.4621C48.2834 80.8386 48.6222 81.1021 48.961 81.1021H49.0739C50.0527 80.9515 51.0315 80.7633 52.0102 80.5374C52.3867 80.4245 52.6502 80.048 52.5372 79.6716C52.4619 79.2198 52.0478 78.994 51.6714 79.1069L51.6716 79.1069Z" fill="#6D95FC"/><path d="M41.8454 79.6354C41.4313 79.5978 41.0925 79.8613 41.0172 80.2754C40.9796 80.6895 41.2431 81.0283 41.6572 81.1036C42.636 81.2165 43.6148 81.3295 44.6312 81.3295H44.6688C45.0453 81.3295 45.3841 81.0283 45.3841 80.6142C45.3841 80.2001 45.0829 79.8613 44.6688 79.8613C43.7277 79.8236 42.7864 79.7483 41.8454 79.6354Z" fill="#6D95FC"/><path d="M69.1767 43.6268C69.2897 43.8903 69.5532 44.0409 69.8543 44.0409C69.9673 44.0409 70.0426 44.0032 70.1555 43.9656C70.532 43.815 70.6825 43.3633 70.532 43.0244C70.1179 42.121 69.6661 41.2175 69.1767 40.3893C68.9885 40.0505 68.5367 39.9376 68.1979 40.1258C67.8591 40.3141 67.7462 40.7658 67.9344 41.1046C68.3862 41.9328 68.8002 42.761 69.1767 43.6268Z" fill="#6D95FC"/><path d="M71.849 50.4221H71.962C72.3761 50.3468 72.6396 49.9704 72.5643 49.5939C72.4137 48.6528 72.2255 47.7116 71.9996 46.8081C71.8867 46.4316 71.5102 46.2057 71.0961 46.281C70.7197 46.394 70.4938 46.7704 70.5691 47.1845C70.795 48.0504 70.9832 48.9161 71.1338 49.8196C71.2091 50.1584 71.5102 50.4219 71.849 50.4219L71.849 50.4221Z" fill="#6D95FC"/><path d="M64.5851 34.516C64.284 34.2525 63.8322 34.2525 63.5687 34.516C63.3052 34.8172 63.3052 35.2689 63.5687 35.5324C64.2463 36.1724 64.8863 36.8876 65.4886 37.6029C65.6392 37.7911 65.8274 37.8664 66.0533 37.8664C66.2039 37.8664 66.3921 37.8287 66.505 37.7158C66.8062 37.4523 66.8438 37.0005 66.618 36.6994C65.978 35.9465 65.3003 35.2313 64.5851 34.516Z" fill="#6D95FC"/></svg>